# AST/ASF file generated using VICON BodyLanguage
# -----------------------------------------------
:version 1.10
:name VICON
:units
  mass 1.0
  length 0.45
  angle deg
:documentation
   .ast/.asf automatically generated from VICON data using
   VICON BodyBuilder and BodyLanguage model FoxedUp or BRILLIANT.MOD
:root
   order TX TY TZ RX RY RZ
   axis XYZ
   position 0 0 0  
   orientation 0 0 0 
:bonedata
  begin
     id 1 
     name lhipjoint
     direction 0.575328 -0.747301 0.332475 
     length 2.40933 
     axis 0 0 0  XYZ
  end
  begin
     id 2 
     name lfemur
     direction 0.34202 -0.939693 0  
     length 7.31453  
     axis 0 0 20  XYZ
    dof rx ry rz
    limits (-160.0 20.0)
           (-70.0 70.0)
           (-60.0 70.0)
  end
  begin
     id 3 
     name ltibia
     direction 0.34202 -0.939693 0   
     length 7.82185   
     axis 0 0 20   XYZ
    dof rx
    limits (-10.0 170.0)
  end
  begin
     id 4 
     name lfoot
     direction 0.0795993 -0.218697 0.972541   
     length 2.19173   
     axis -90 7.62852e-016 20   XYZ
    dof rx rz
    limits (-45.0 90.0)
           (-70.0 20.0)
  end
  begin
     id 5 
     name ltoes
     direction 1.53537e-011 -4.21894e-011 1   
     length 1.10023   
     axis -90 7.62852e-016 20   XYZ
    dof rx
    limits (-90.0 20.0)
  end
  begin
     id 6 
     name rhipjoint
     direction -0.513884 -0.783789 0.348708   
     length 2.29716  
     axis 0 0 0  XYZ 
  end
  begin
     id 7 
     name rfemur
     direction -0.34202 -0.939693 0   
     length 7.59573   
     axis 0 0 -20   XYZ
    dof rx ry rz
    limits (-160.0 20.0)
           (-70.0 70.0)
           (-70.0 60.0)
  end
  begin
     id 8 
     name rtibia
     direction -0.34202 -0.939693 0   
     length 7.66402   
     axis 0 0 -20   XYZ
    dof rx
    limits (-10.0 170.0)
 end
 begin
     id 9 
     name rfoot
     direction -0.137793 -0.378584 0.915253   
     length 2.27056  
     axis -90 -7.62852e-016 -20   XYZ
    dof rx rz
    limits (-45.0 90.0)
           (-20.0 70.0)
  end
  begin
     id 10 
     name rtoes
     direction -1.53493e-011 -4.22159e-011 1   
     length 1.11766   
     axis -90 -7.62852e-016 -20   XYZ
    dof rx
    limits (-90.0 20.0)
  end
  begin
     id 11 
     name lowerback
     direction -0.00732775 0.998356 -0.05685   
     length 2.16513   
     axis 0 0 0   XYZ
    dof rx ry rz
    limits (-20.0 45.0)
           (-30.0 30.0)
           (-30.0 30.0)
  end
  begin
     id 12 
     name upperback
     direction 0.0218081 0.999627 -0.0164647   
     length 2.16755   
     axis 0 0 0   XYZ
    dof rx ry rz
    limits (-20.0 45.0)
           (-30.0 30.0)
           (-30.0 30.0)
  end
  begin
     id 13 
     name thorax
     direction 0.02365 0.999661 0.0108914   
     length 2.16932   
     axis 0 0 0   XYZ
    dof rx ry rz
    limits (-20.0 45.0)
           (-30.0 30.0)
           (-30.0 30.0)
  end
  begin
     id 14 
     name lowerneck
     direction -0.0523929 0.978385 0.200044   
     length 1.63877   
     axis 0 0 0   XYZ
    dof rx ry rz
    limits (-20.0 45.0)
           (-30.0 30.0)
           (-30.0 30.0)
  end
  begin
     id 15 
     name upperneck
     direction 0.0448674 0.981321 -0.187074   
     length 1.69014   
     axis 0 0 0   XYZ
    dof rx ry rz
    limits (-20.0 45.0)
           (-30.0 30.0)
           (-30.0 30.0)
  end
  begin
     id 16
     name head
     direction 0.0199089 0.996118 -0.0857429  
     length 1.70094  
     axis 0 0 0   XYZ
    dof rx ry rz
    limits (-20.0 45.0)
           (-30.0 30.0)
           (-30.0 30.0)
  end
  begin
     id 17 
     name lclavicle
     direction 0.940366 0.30191 -0.156722  
     length 3.37521  
     axis 0 0 0   XYZ
    dof ry rz
    limits (-20.0 10.0)
           (0.0 20.0)
  end
  begin
     id 18 
     name lhumerus
     direction 1 -4.4897e-011 -1.7911e-027   
     length 5.25287   
     axis 180 -30 -90   XYZ
    dof rx ry rz
    limits (-60.0 90.0)
           (-90.0 90.0)
           (-90.0 90.0)
  end
  begin
     id 19
     name lradius
     direction 1 -4.48951e-011 1.04424e-027   
     length 3.51014   
     axis 180 -30 -90   XYZ
    dof rx
    limits (-10.0 170.0)
  end
  begin
     id 20
     name lwrist
     direction 1 -4.48997e-011 -9.5942e-028   
     length 1.75507   
     axis 8.48502e-016 90 90   XYZ
    dof ry
    limits (-180.0 0.0)
 end
  begin
     id 21 
     name lhand
     direction 1 -4.48831e-011 -1.90777e-027   
     length 0.706179   
     axis 1.22306e-015 90 90   XYZ
    dof rx rz
    limits (-90.0 90.0)
           (-45.0 45.0)
  end
  begin
     id 22 
     name lfingers
     direction 1 -4.49108e-011 -3.85244e-027   
     length 0.569339   
     axis 2.44611e-015 90 90   XYZ
    dof rx
    limits (0.0 90.0)
  end
  begin
     id 23
     name lthumb
     direction 0.707107 -6.34953e-011 0.707107   
     length 0.817461   
     axis -90 45 -1.62303e-014   XYZ
    dof rx rz
    limits (-45.0 45.0)
           (-45.0 45.0)
  end
  begin
     id 24 
     name rclavicle
     direction -0.905329 0.382405 -0.184787   
     length 3.30787  
     axis 0 0 0   XYZ 
    dof ry rz
    limits (-10.0 20.0)
           (-20.0 0.0)
  end
  begin
     id 25 
     name rhumerus
     direction -1 -4.48953e-011 -9.15316e-029  
     length 5.28721   
     axis 180 30 90   XYZ
    dof rx ry rz
    limits (-90.0 60.0)
           (-90.0 90.0)
           (-90.0 90.0)
  end
  begin
     id 26 
     name rradius
     direction -1 -4.48987e-011 9.37824e-028   
     length 3.50544   
     axis 180 30 90   XYZ
    dof rx
    limits (-10.0 170.0)
  end
  begin
     id 27 
     name rwrist
     direction -1 -4.48967e-011 -9.58414e-028   
     length 1.75272   
     axis 8.48502e-016 -90 -90   XYZ
    dof ry
    limits (-180.0 0.0)
  end
  begin
     id 28
     name rhand
     direction -1 -4.48904e-011 -1.91266e-027   
     length 0.884996   
     axis 1.22306e-015 -90 -90   XYZ
    dof rx rz
    limits (-90.0 90.0)
           (-45.0 45.0)
  end
  begin
     id 29
     name rfingers
     direction -1 -4.4909e-011 -3.85015e-027   
     length 0.713507   
     axis 2.44611e-015 -90 -90   XYZ
    dof rx
    limits (0.0 90.0)
  end
  begin
     id 30
     name rthumb
     direction -0.707107 -6.34853e-011 0.707107   
     length 1.02446   
     axis -90 -45 1.62303e-014   XYZ
    dof rx rz
    limits (-45.0 45.0)
           (-45.0 45.0)
  end
:hierarchy
  begin
    root lhipjoint rhipjoint lowerback
    lhipjoint lfemur
    lfemur ltibia
    ltibia lfoot
    lfoot ltoes
    rhipjoint rfemur
    rfemur rtibia
    rtibia rfoot
    rfoot rtoes
    lowerback upperback
    upperback thorax
    thorax lowerneck lclavicle rclavicle
    lowerneck upperneck
    upperneck head
    lclavicle lhumerus
    lhumerus lradius
    lradius lwrist
    lwrist lhand lthumb
    lhand lfingers
    rclavicle rhumerus
    rhumerus rradius
    rradius rwrist
    rwrist rhand rthumb
    rhand rfingers
  end

#!OML:ASF F:\twosubjects\two\Thursday\Session 1\justin.ASF
:FULLY-SPECIFIED
:DEGREES
89
root 11.5179 17.8657 -16.46 4.97481 -70.2728 3.05667
lowerback -3.00941 2.17851 -1.70176
upperback -0.835752 2.92674 1.83642
thorax 0.646156 1.46044 2.93696
lowerneck -17.5744 8.34898 -1.66242
upperneck 29.2781 12.9988 -2.12728
head 12.7052 5.13721 1.49973
rclavicle 7.40473e-014 7.95139e-015
rhumerus -32.1347 -19.4591 -74.6637
rradius 29.976
rwrist -3.46804
rhand -15.8707 12.5819
rfingers 7.12502
rthumb 10.3249 -17.1446
lclavicle 7.40473e-014 7.95139e-015
lhumerus -30.6056 7.12451 85.6636
lradius 28.5773
lwrist -14.2148
lhand 0.0658644 40.3801
lfingers 7.12502
lthumb 25.6535 68.6718
rfemur -9.7076 -5.01558 21.5563
rtibia 25.9081
rfoot -21.5712 -13.6278
rtoes -8.1729
lfemur -5.30974 3.39639 -17.1126
ltibia 11.1738
lfoot -11.2619 -2.11718
ltoes -17.1126
90
root 11.5177 17.8616 -16.4594 5.25985 -70.2578 2.74704
lowerback -2.97154 2.14704 -1.56375
upperback -0.814003 2.87874 1.91771
thorax 0.652982 1.4359 2.94073
lowerneck -17.5237 8.40733 -1.90424
upperneck 29.2879 13.0828 -1.90167
head 12.6593 5.18126 1.62985
rclavicle 3.26504e-014 -7.95139e-015
rhumerus -32.0957 -18.908 -74.7202
rradius 30.0755
rwrist -3.92063
rhand -15.9328 12.4861
rfingers 7.12502
rthumb 10.265 -17.2434
lclavicle 3.26504e-014 -7.95139e-015
lhumerus -30.6373 7.26589 85.6903
lradius 28.5678
lwrist -14.1862
lhand 0.108243 40.4216
lfingers 7.12502
lthumb 25.694 68.7074
rfemur -9.78381 -5.28661 21.6442
rtibia 26.0765
rfoot -21.8018 -13.2811
rtoes -7.29821
lfemur -5.4981 3.76143 -17.0038
ltibia 11.4882
lfoot -11.378 -2.36154
ltoes -17.6279
91
root 11.5185 17.8582 -16.4614 5.51091 -70.2148 2.40617
lowerback -2.81895 2.19236 -1.44821
upperback -0.764661 2.93429 1.95368
thorax 0.618772 1.4637 2.90909
lowerneck -17.6267 8.37862 -1.84162
upperneck 29.3375 13.0418 -1.93243
head 12.7084 5.16065 1.61001
rclavicle 8.9801e-014 -3.18055e-015
rhumerus -32.0582 -18.9878 -74.6441
rradius 30.0214
rwrist -3.91227
rhand -16.1134 12.3831
rfingers 7.12502
rthumb 10.0908 -17.3549
lclavicle 8.9801e-014 -3.18055e-015
lhumerus -30.5632 7.27411 85.7324
lradius 28.508
lwrist -14.3815
lhand 0.28316 40.3167
lfingers 7.12502
lthumb 25.8616 68.5782
rfemur -9.80627 -5.48276 21.766
rtibia 26.264
rfoot -21.7963 -13.1443
rtoes -7.38369
lfemur -5.60233 3.71483 -16.8664
ltibia 11.7843
lfoot -11.4397 -2.23959
ltoes -18.3216
92
root 11.5195 17.8542 -16.4629 5.05168 -70.1852 2.89009
lowerback -2.70935 2.48706 -1.50747
upperback -0.724627 3.33375 1.62938
thorax 0.590306 1.66436 2.61566
lowerneck -17.6976 8.09742 -1.02687
upperneck 29.2458 12.5048 -2.31588
head 12.7788 4.96339 1.26061
rclavicle 1.799e-014 1.35174e-014
rhumerus -32.2802 -20.228 -74.5225
rradius 29.9936
rwrist -3.64922
rhand -16.2849 12.5598
rfingers 7.12502
rthumb 9.92535 -17.1862
lclavicle 1.799e-014 1.35174e-014
lhumerus -30.2871 6.04253 85.7952
lradius 28.4835
lwrist -14.2594
lhand 0.428832 40.3344
lfingers 7.12502
lthumb 26.0011 68.5755
rfemur -9.91689 -5.64686 21.5886
rtibia 26.4727
rfoot -21.7671 -13.0719
rtoes -7.5872
lfemur -5.7401 3.72409 -17.0406
ltibia 11.9949
lfoot -11.586 -2.31238
ltoes -18.4075
93
root 11.5197 17.8504 -16.4611 4.40679 -70.1806 3.59041
lowerback -2.71265 0.912887 -2.47011
upperback -0.682503 1.23623 3.06509
thorax 0.698977 0.608391 4.58717
lowerneck -17.0122 9.38291 -3.60235
upperneck 28.563 15.1636 -2.75856
head 12.2145 5.85145 1.83409
rclavicle -2.74323e-014 -1.59028e-014
rhumerus -30.5642 -14.3208 -75.0527
rradius 29.6269
rwrist -4.38269
rhand -16.3594 12.4965
rfingers 7.12502
rthumb 9.85338 -17.2529
lclavicle -2.74323e-014 -1.59028e-014
lhumerus -31.4346 11.8775 85.6128
lradius 28.9232
lwrist -14.8785
lhand 0.310285 40.3709
lfingers 7.12502
lthumb 25.8875 68.6286
rfemur -10.0674 -5.63346 21.3302
rtibia 26.7332
rfoot -21.8489 -13.1501
rtoes -7.67021
lfemur -5.8009 3.63307 -17.3078
ltibia 12.0673
lfoot -11.5632 -2.31923
ltoes -18.0159
94
root 11.519 17.845 -16.4584 3.92322 -70.1781 4.06763
lowerback -2.60922 1.73332 -2.18793
upperback -0.663704 2.3378 2.23721
thorax 0.599237 1.16474 3.59538
lowerneck -17.0946 8.71624 -2.25699
upperneck 28.7156 13.7722 -2.55918
head 12.3781 5.39782 1.50867
rclavicle 2.83268e-014 -1.59028e-015
rhumerus -31.5197 -16.8953 -74.9201
rradius 30.0941
rwrist -4.56152
rhand -16.4064 12.3078
rfingers 7.12502
rthumb 9.80805 -17.4438
lclavicle 2.83268e-014 -1.59028e-015
lhumerus -30.8986 8.83708 85.7281
lradius 28.8213
lwrist -14.6413
lhand 0.210009 40.4027
lfingers 7.12502
lthumb 25.7915 68.6744
rfemur -10.1613 -5.44405 21.1545
rtibia 27.023
rfoot -21.9525 -13.3721
rtoes -7.88954
lfemur -5.77185 3.59496 -17.4886
ltibia 12.0762
lfoot -11.3769 -2.30556
ltoes -18.0459
95
root 11.5191 17.8396 -16.4575 3.84153 -70.1742 4.10575
lowerback -2.49381 1.89133 -2.06896
upperback -0.617719 2.54762 2.01603
thorax 0.58088 1.27011 3.30194
lowerneck -17.2152 8.68277 -1.90333
upperneck 28.9319 13.5791 -2.35775
head 12.4961 5.3636 1.51216
rclavicle 5.29761e-014 1.35174e-014
rhumerus -31.7497 -17.3454 -75.0638
rradius 30.3754
rwrist -4.58775
rhand -16.5904 11.996
rfingers 7.12502
rthumb 9.63059 -17.7639
lclavicle 5.29761e-014 1.35174e-014
lhumerus -30.7638 8.18391 85.6298
lradius 28.8843
lwrist -14.5623
lhand 0.102518 40.3644
lfingers 7.12502
lthumb 25.6886 68.651
rfemur -10.2179 -5.30026 21.1088
rtibia 27.2913
rfoot -22.1723 -13.3062
rtoes -6.86786
lfemur -5.76114 3.53553 -17.4935
ltibia 12.1306
lfoot -11.2479 -2.27141
ltoes -18.0958
96
root 11.5212 17.8373 -16.4581 3.97249 -70.1778 3.95435
lowerback -2.44362 1.82275 -1.98181
upperback -0.477581 2.45385 1.97772
thorax 0.708787 1.21991 3.21258
lowerneck -17.523 8.81652 -1.64336
upperneck 29.0329 13.7538 -2.46837
head 12.6317 5.43913 1.48048
rclavicle 2.50469e-014 1.03368e-014
rhumerus -31.454 -17.317 -75.3833
rradius 30.4103
rwrist -4.33668
rhand -16.8404 11.7055
rfingers 7.12502
rthumb 9.3893 -18.0654
lclavicle 2.50469e-014 1.03368e-014
lhumerus -30.5173 8.22515 85.4826
lradius 28.895
lwrist -14.4356
lhand -0.0383425 40.5591
lfingers 7.12502
lthumb 25.5536 68.8651
rfemur -10.3386 -5.41049 21.1333
rtibia 27.5568
rfoot -22.395 -13.0174
rtoes -5.74972
lfemur -5.79769 3.36993 -17.427
ltibia 12.2225
lfoot -11.259 -2.13178
ltoes -17.8394
97
root 11.5232 17.8353 -16.4569 3.62573 -70.19 4.32331
lowerback -2.39945 1.88263 -1.98317
upperback -0.366525 2.53578 1.82909
thorax 0.799008 1.2589 3.06319
lowerneck -17.7806 8.7498 -1.35852
upperneck 29.0653 13.6279 -2.59628
head 12.732 5.38801 1.38661
rclavicle 3.97569e-014 -4.77083e-015
rhumerus -31.2847 -17.7695 -75.4845
rradius 30.3656
rwrist -4.07472
rhand -17.084 11.543
rfingers 7.12502
rthumb 9.15427 -18.2383
lclavicle 3.97569e-014 -4.77083e-015
lhumerus -30.2786 7.74949 85.4795
lradius 28.9082
lwrist -14.1967
lhand -0.0828122 40.5828
lfingers 7.12502
lthumb 25.5111 68.8949
rfemur -10.4824 -5.63844 20.9753
rtibia 27.8199
rfoot -22.5263 -12.8316
rtoes -5.59485
lfemur -5.88782 3.37286 -17.5637
ltibia 12.4171
lfoot -11.3926 -2.15513
ltoes -17.4093
98
root 11.5229 17.8347 -16.4561 3.05094 -70.2706 4.92165
lowerback -2.37204 1.92446 -2.14717
upperback -0.263091 2.59682 1.77449
thorax 0.880923 1.287 3.10201
lowerneck -17.8158 8.64481 -1.46579
upperneck 28.965 13.505 -2.60182
head 12.6898 5.32688 1.38035
rclavicle -6.55989e-015 1.19271e-014
rhumerus -31.2017 -17.8382 -75.4392
rradius 30.4319
rwrist -4.14534
rhand -17.176 11.585
rfingers 7.12502
rthumb 9.06556 -18.2002
lclavicle -6.55989e-015 1.19271e-014
lhumerus -30.1729 7.61305 85.5725
lradius 28.9847
lwrist -14.0548
lhand -0.366647 40.6781
lfingers 7.12502
lthumb 25.2391 69.0288
rfemur -10.5939 -5.65581 20.7091
rtibia 28.0748
rfoot -22.675 -12.6352
rtoes -5.14328
lfemur -6.01459 3.43448 -17.7921
ltibia 12.7579
lfoot -11.4953 -2.15968
ltoes -17.2714
99
root 11.5237 17.8358 -16.4578 3.18464 -70.3531 4.79432
lowerback -2.33567 1.92065 -2.12426
upperback -0.182164 2.58953 1.84049
thorax 0.942069 1.28136 3.15748
lowerneck -17.708 8.59098 -1.67888
upperneck 28.7872 13.4795 -2.62478
head 12.5814 5.30276 1.3891
rclavicle 6.03311e-014 8.74653e-015
rhumerus -31.0753 -17.6842 -75.4251
rradius 30.5131
rwrist -4.15141
rhand -17.1119 11.635
rfingers 7.12502
rthumb 9.12733 -18.1475
lclavicle 6.03311e-014 8.74653e-015
lhumerus -30.1469 7.71894 85.6563
lradius 29.1042
lwrist -13.8186
lhand -0.862859 41.0505
lfingers 7.12502
lthumb 24.7637 69.4674
rfemur -10.7683 -5.79156 20.7379
rtibia 28.3521
rfoot -22.7199 -12.3768
rtoes -5.34216
lfemur -6.17684 3.29139 -17.7481
ltibia 13.118
lfoot -11.5055 -1.93032
ltoes -16.8915
